HIERARCHY
ROOT Root
{
	OFFSET 0.00000 0.00000 0.00000
	CHANNELS 6 Xposition Yposition Zposition Zrotation Xrotation Yrotation
	JOINT Hip
	{
		OFFSET 0 0 0	
		CHANNELS 3 Zrotation Xrotation Yrotation
		JOINT Tummy
		{
			OFFSET 0 0.04 0	
			CHANNELS 3 Zrotation Xrotation Yrotation
			JOINT ChestBottom
			{
				OFFSET 0 0.194 0	
				CHANNELS 3 Zrotation Xrotation Yrotation
				JOINT ChestTop
				{
					OFFSET 0 0.166 0	
					CHANNELS 3 Zrotation Xrotation Yrotation
					JOINT LeftCollar
					{
						OFFSET 0 0.1 0	
						CHANNELS 3 Zrotation Xrotation Yrotation
						JOINT LeftUpperArm
						{
							OFFSET 0.156 -0.02 0.03	
							CHANNELS 3 Zrotation Xrotation Yrotation
							JOINT LeftForeArm
							{
								OFFSET 0.035 -0.27 -0.01	
								CHANNELS 3 Zrotation Xrotation Yrotation
								JOINT LeftHand
								{
									OFFSET 0.01 -0.27 0.01	
									CHANNELS 3 Zrotation Xrotation Yrotation
									End Site
									{
										OFFSET 0 -0.15 0
									}
								}
							}
						}
					}
					JOINT RightCollar
					{
						OFFSET 0 0.1 0	
						CHANNELS 3 Zrotation Xrotation Yrotation
						JOINT RightUpperArm
						{
							OFFSET -0.156 -0.02 0.03	
							CHANNELS 3 Zrotation Xrotation Yrotation
							JOINT RightForeArm
							{
								OFFSET -0.035 -0.27 -0.01	
								CHANNELS 3 Zrotation Xrotation Yrotation
								JOINT RightHand
								{
									OFFSET -0.01 -0.27 0.01	
									CHANNELS 3 Zrotation Xrotation Yrotation
									End Site
									{
										OFFSET 0 -0.15 0
									}
								}
							}
						}
					}
					JOINT Neck
					{
						OFFSET 0 0.1 0	
						CHANNELS 3 Zrotation Xrotation Yrotation
						JOINT Head
						{
							OFFSET 0 0.127 0.03	
							CHANNELS 3 Zrotation Xrotation Yrotation
							End Site
							{
								OFFSET 0 0.127 0.03
							}
						}
					}
				}
			}
		}
	}
	JOINT LeftHip
	{
		OFFSET 0 0 0	
		CHANNELS 3 Zrotation Xrotation Yrotation
		JOINT LeftThigh
		{
			OFFSET 0.088 -0.06 0	
			CHANNELS 3 Zrotation Xrotation Yrotation
			JOINT LeftLowerLeg
			{
				OFFSET 0 -0.39 0.02	
				CHANNELS 3 Zrotation Xrotation Yrotation
				JOINT LeftFootTop
				{
					OFFSET 0 -0.43 -0.02	
					CHANNELS 3 Zrotation Xrotation Yrotation
					JOINT LeftFootFront
					{
						OFFSET 0 -0.07 0.085	
						CHANNELS 3 Zrotation Xrotation Yrotation
						End Site
						{
							OFFSET 0 -0.005 0.09
						}
					}
				}
				JOINT LeftHeel
				{
					OFFSET 0 -0.43 -0.02	
					CHANNELS 3 Zrotation Xrotation Yrotation
					End Site
					{
						OFFSET 0 -0.075 -0.05
					}
				}
			}
		}
	}
	JOINT RightHip
	{
		OFFSET 0 0 0	
		CHANNELS 3 Zrotation Xrotation Yrotation
		JOINT RightThigh
		{
			OFFSET -0.088 -0.06 0	
			CHANNELS 3 Zrotation Xrotation Yrotation
			JOINT RightLowerLeg
			{
				OFFSET 0 -0.39 0.02	
				CHANNELS 3 Zrotation Xrotation Yrotation
				JOINT RightFootTop
				{
					OFFSET 0 -0.43 -0.02	
					CHANNELS 3 Zrotation Xrotation Yrotation
					JOINT RightFootFront
					{
						OFFSET 0 -0.07 0.085	
						CHANNELS 3 Zrotation Xrotation Yrotation
						End Site
						{
							OFFSET 0 -0.005 0.09
						}
					}
				}
				JOINT RightHeel
				{
					OFFSET 0 -0.43 -0.02	
					CHANNELS 3 Zrotation Xrotation Yrotation
					End Site
					{
						OFFSET 0 -0.075 -0.05
					}
				}
			}
		}
	}
}
MOTION
Frames: 15
Frame Time: 0.008
0 0.95799 0 -0 0 -0 3.5811 -1.8519 -3.2037 -2.4973 4.5427 -2.4632 -2.4973 4.5427 -2.4632 -2.1101 3.8088 -2.0817 -0 0 -0 3.875 -42.542 -19.238 -38.427 -81.815 -44.847 -0 0 -0 -0 0 -0 12.073 -48.817 22.694 50.781 -66.25 51.17 -0 0 -0 1.858 -22.755 1.0413 1.858 -22.755 1.0413 3.5811 -1.8519 -3.2037 5.3769 -14.564 3.0865 -8.9552 18.224 5.1092 -0 0 -0 -0 0 -0 -0 0 -0 3.5811 -1.8519 -3.2037 0.31812 -19.943 -7.8316 -1.4469 28.395 2.8497 -0 0 -0 -0 0 -0 -0 0 -0 
0 0.95799 0 -0 0 -0 3.5349 -1.9443 -3.2623 -2.4643 4.3976 -2.4642 -2.4643 4.3976 -2.4642 -2.0821 3.687 -2.0819 -0 0 -0 4.0412 -43.313 -19.214 -37.405 -81.817 -44.093 -0 0 -0 -0 0 -0 13.232 -49.758 23.579 49.631 -66.019 50.897 -0 0 -0 1.8394 -22.642 1.0662 1.8394 -22.642 1.0662 3.5349 -1.9443 -3.2623 5.234 -14.125 3.146 -8.5361 17.708 4.8991 -0 0 -0 -0 0 -0 -0 0 -0 3.5349 -1.9443 -3.2623 0.35119 -19.41 -7.9097 -1.4702 27.646 2.9636 -0 0 -0 -0 0 -0 -0 0 -0 
0 0.95799 0 -0 0 -0 3.4849 -2.0196 -3.3195 -2.4303 4.2491 -2.4645 -2.4303 4.2491 -2.4645 -2.0531 3.5624 -2.0817 -0 0 -0 4.1968 -44.075 -19.211 -36.049 -81.833 -43.016 -0 0 -0 -0 0 -0 14.471 -50.674 24.61 48.309 -65.863 50.507 -0 0 -0 1.8171 -22.536 1.0889 1.8171 -22.536 1.0889 3.4849 -2.0196 -3.3195 5.1031 -13.71 3.2151 -8.1265 17.201 4.7063 -0 0 -0 -0 0 -0 -0 0 -0 3.4849 -2.0196 -3.3195 0.38403 -18.907 -7.9978 -1.4874 26.912 3.0714 -0 0 -0 -0 0 -0 -0 0 -0 
0 0.95799 0 -0 0 -0 3.4308 -2.0797 -3.3758 -2.394 4.1 -2.4633 -2.394 4.1 -2.4633 -2.0223 3.4372 -2.0802 -0 0 -0 4.3267 -44.835 -19.214 -34.604 -81.837 -41.859 -0 0 -0 -0 0 -0 15.785 -51.564 25.772 46.86 -65.766 50.02 -0 0 -0 1.7887 -22.44 1.1078 1.7887 -22.44 1.1078 3.4308 -2.0797 -3.3758 4.9838 -13.319 3.2904 -7.7302 16.703 4.5277 -0 0 -0 -0 0 -0 -0 0 -0 3.4308 -2.0797 -3.3758 0.41889 -18.429 -8.0935 -1.4982 26.193 3.1753 -0 0 -0 -0 0 -0 -0 0 -0 
0 0.95799 0 -0 0 -0 3.3722 -2.127 -3.4314 -2.3547 3.9522 -2.4599 -2.3547 3.9522 -2.4599 -1.9888 3.3132 -2.0767 -0 0 -0 4.4198 -45.599 -19.21 -33.312 -81.807 -40.861 -0 0 -0 -0 0 -0 17.166 -52.434 27.049 45.321 -65.703 49.449 -0 0 -0 1.7535 -22.357 1.1218 1.7535 -22.357 1.1218 3.3722 -2.127 -3.4314 4.8751 -12.95 3.3672 -7.3506 16.215 4.3606 -0 0 -0 -0 0 -0 -0 0 -0 3.3722 -2.127 -3.4314 0.45771 -17.973 -8.193 -1.5017 25.488 3.2755 -0 0 -0 -0 0 -0 -0 0 -0 
0 0.95799 0 -0 0 -0 3.3091 -2.1642 -3.4858 -2.3115 3.8067 -2.454 -2.3115 3.8067 -2.454 -1.9522 3.191 -2.0712 -0 0 -0 4.4706 -46.365 -19.191 -32.358 -81.732 -40.206 -0 0 -0 -0 0 -0 18.615 -53.291 28.43 43.711 -65.645 48.787 -0 0 -0 1.7119 -22.285 1.1304 1.7119 -22.285 1.1304 3.3091 -2.1642 -3.4858 4.7755 -12.603 3.4402 -6.9892 15.736 4.2026 -0 0 -0 -0 0 -0 -0 0 -0 3.3091 -2.1642 -3.4858 0.5019 -17.533 -8.2913 -1.4971 24.794 3.3701 -0 0 -0 -0 0 -0 -0 0 -0 
0 0.95799 0 -0 0 -0 3.2417 -2.1935 -3.5384 -2.2643 3.6625 -2.4457 -2.2643 3.6625 -2.4457 -1.9121 3.0701 -2.0637 -0 0 -0 4.4794 -47.13 -19.156 -31.824 -81.605 -39.98 -0 0 -0 -0 0 -0 20.133 -54.14 29.91 42.035 -65.564 48.019 -0 0 -0 1.6652 -22.222 1.1337 1.6652 -22.222 1.1337 3.2417 -2.1935 -3.5384 4.6836 -12.275 3.5052 -6.6456 15.268 4.0523 -0 0 -0 -0 0 -0 -0 0 -0 3.2417 -2.1935 -3.5384 0.55212 -17.106 -8.3842 -1.4839 24.111 3.4567 -0 0 -0 -0 0 -0 -0 0 -0 
0 0.95799 0 -0 0 -0 3.1705 -2.2167 -3.5876 -2.2133 3.5181 -2.4356 -2.2133 3.5181 -2.4356 -1.8689 2.9489 -2.0547 -0 0 -0 4.4519 -47.885 -19.107 -31.684 -81.428 -40.153 -0 0 -0 -0 0 -0 21.722 -54.986 31.491 40.283 -65.433 47.122 -0 0 -0 1.615 -22.162 1.1322 1.615 -22.162 1.1322 3.1705 -2.2167 -3.5876 4.5981 -11.965 3.56 -6.3175 14.811 3.9091 -0 0 -0 -0 0 -0 -0 0 -0 3.1705 -2.2167 -3.5876 0.60813 -16.691 -8.4682 -1.4619 23.44 3.5329 -0 0 -0 -0 0 -0 -0 0 -0 
0 0.95799 0 -0 0 -0 3.0961 -2.2352 -3.6322 -2.1589 3.3719 -2.4247 -2.1589 3.3719 -2.4247 -1.8228 2.8264 -2.0449 -0 0 -0 4.3971 -48.622 -19.054 -31.821 -81.209 -40.606 -0 0 -0 -0 0 -0 23.387 -55.834 33.18 38.445 -65.234 46.073 -0 0 -0 1.5627 -22.104 1.1265 1.5627 -22.104 1.1265 3.0961 -2.2352 -3.6322 4.5178 -11.667 3.6045 -6.0012 14.365 3.7731 -0 0 -0 -0 0 -0 -0 0 -0 3.0961 -2.2352 -3.6322 0.6689 -16.287 -8.5416 -1.4316 22.782 3.597 -0 0 -0 -0 0 -0 -0 0 -0 
0 0.95799 0 -0 0 -0 3.0192 -2.2502 -3.6707 -2.1019 3.2234 -2.4139 -2.1019 3.2234 -2.4139 -1.7744 2.7018 -2.0353 -0 0 -0 4.3257 -49.335 -19.008 -32.065 -80.959 -41.163 -0 0 -0 -0 0 -0 25.132 -56.685 34.994 36.51 -64.958 44.854 -0 0 -0 1.509 -22.045 1.1173 1.509 -22.045 1.1173 3.0192 -2.2502 -3.6707 4.4419 -11.38 3.6402 -5.6928 13.931 3.6456 -0 0 -0 -0 0 -0 -0 0 -0 3.0192 -2.2502 -3.6707 0.73282 -15.896 -8.6038 -1.3938 22.141 3.6481 -0 0 -0 -0 0 -0 -0 0 -0 
0 0.95799 0 -0 0 -0 2.9406 -2.2632 -3.7026 -2.0428 3.0731 -2.4041 -2.0428 3.0731 -2.4041 -1.7244 2.5757 -2.0265 -0 0 -0 4.2482 -50.019 -18.979 -32.233 -80.696 -41.635 -0 0 -0 -0 0 -0 26.963 -57.543 36.952 34.474 -64.601 43.456 -0 0 -0 1.4538 -21.987 1.1054 1.4538 -21.987 1.1054 2.9406 -2.2632 -3.7026 4.37 -11.098 3.6699 -5.389 13.508 3.5283 -0 0 -0 -0 0 -0 -0 0 -0 2.9406 -2.2632 -3.7026 0.7981 -15.519 -8.6549 -1.3496 21.521 3.6856 -0 0 -0 -0 0 -0 -0 0 -0 
0 0.95799 0 -0 0 -0 2.8612 -2.2764 -3.728 -1.9825 2.9232 -2.3961 -1.9825 2.9232 -2.3961 -1.6733 2.45 -2.0193 -0 0 -0 4.1748 -50.673 -18.979 -32.154 -80.444 -41.843 -0 0 -0 -0 0 -0 28.891 -58.407 39.078 32.334 -64.172 41.875 -0 0 -0 1.397 -21.932 1.0918 1.397 -21.932 1.0918 2.8612 -2.2764 -3.728 4.302 -10.818 3.6965 -5.0875 13.095 3.4228 -0 0 -0 -0 0 -0 -0 0 -0 2.8612 -2.2764 -3.728 0.8632 -15.156 -8.6953 -1.3003 20.923 3.7087 -0 0 -0 -0 0 -0 -0 0 -0 
0 0.95799 0 -0 0 -0 2.7818 -2.2927 -3.7479 -1.9217 2.777 -2.3904 -1.9217 2.777 -2.3904 -1.6218 2.3274 -2.014 -0 0 -0 4.1149 -51.299 -19.016 -31.681 -80.227 -41.636 -0 0 -0 -0 0 -0 30.93 -59.274 41.399 30.088 -63.681 40.117 -0 0 -0 1.3387 -21.884 1.0774 1.3387 -21.884 1.0774 2.7818 -2.2927 -3.7479 4.2379 -10.534 3.7231 -4.7881 12.689 3.33 -0 0 -0 -0 0 -0 -0 0 -0 2.7818 -2.2927 -3.7479 0.92675 -14.805 -8.7254 -1.2471 20.35 3.7172 -0 0 -0 -0 0 -0 -0 0 -0 
0 0.95799 0 -0 0 -0 2.7031 -2.316 -3.7644 -1.8611 2.6387 -2.3872 -1.8611 2.6387 -2.3872 -1.5705 2.2113 -2.0108 -0 0 -0 4.0776 -51.903 -19.094 -30.694 -80.064 -40.891 -0 0 -0 -0 0 -0 33.099 -60.139 43.94 27.737 -63.142 38.197 -0 0 -0 1.2794 -21.845 1.0632 1.2794 -21.845 1.0632 2.7031 -2.316 -3.7644 4.1777 -10.242 3.7524 -4.4914 12.288 3.2492 -0 0 -0 -0 0 -0 -0 0 -0 2.7031 -2.316 -3.7644 0.98777 -14.464 -8.7458 -1.1917 19.803 3.7116 -0 0 -0 -0 0 -0 -0 0 -0 
0 0.95799 0 -0 0 -0 2.626 -2.3503 -3.7797 -1.8015 2.5126 -2.3862 -1.8015 2.5126 -2.3862 -1.5202 2.1056 -2.0096 -0 0 -0 4.0723 -52.491 -19.211 -29.105 -79.97 -39.519 -0 0 -0 -0 0 -0 35.42 -60.995 46.719 25.289 -62.563 36.142 -0 0 -0 1.2203 -21.818 1.0503 1.2203 -21.818 1.0503 2.626 -2.3503 -3.7797 4.1219 -9.9381 3.7867 -4.1996 11.89 3.1786 -0 0 -0 -0 0 -0 -0 0 -0 2.626 -2.3503 -3.7797 1.0459 -14.126 -8.7577 -1.1356 19.279 3.6941 -0 0 -0 -0 0 -0 -0 0 -0 
